<svg xmlns="http://www.w3.org/2000/svg" viewBox="0 0 107.29 148.05"><defs><style>.cls-1{fill:#2a2b61}.cls-2{fill:#b2b2b2}</style></defs><g id="Layer_2" data-name="Layer 2"><g id="Layer_1-2" data-name="Layer 1"><path class="cls-1" d="M107.29 98.06H0l1.27-2h8.39l3.96-77.5v-.01l.09-1.93L38.64 0l26.84 18.75.77 10.17 24.12 13.95 7.99 53.19h7.67l1.26 2z"/><path class="cls-1" d="M70.17 96.07v.01H59.63l-10.53-.01h21.07z"/><path class="cls-2" d="M70.17 96.07v.01H59.63l-10.53-.01-10.53-.01V52.99l14.77 12.53v15.25l2.25.42-.07-16.49-16.95-14.72-13 3.67v26.67l-2.13.31.54-50.63 1.72-1.02-.13 22.93 13-4.03.03-46.02 25.28 17.5 3.17 38.79-11.53-10.86-.58-20.51-2.04-1.37.49 22.52 13.88 12.91 2.9 35.23zM96.8 96.07H71.71l-5.32-65.21 22.52 12.88 3.79 25.09-9.94-1.13-1.4-14.11-1.98-.72 3.2 32.49h1.93l-1.55-15.73 10.03 1.09 3.81 25.35z"/><path class="cls-1" d="M66.42 112.42v-4.55c0-1.57-.54-3.44-3.11-3.44H58.2v18.62h3v-7.26h1l1.62 7.26h2.91L65 115.63c.94-.52 1.42-1.63 1.42-3.21zm-5.19-5.19h1.33c.41 0 .83.12.83 1v3.66c0 .93-.42 1-.83 1h-1.33zM27.16 112.42v-4.55c0-1.57-.54-3.44-3.11-3.44h-5.11v18.62h3v-7.26h1l1.62 7.26h2.92l-1.75-7.42c.95-.52 1.43-1.63 1.43-3.21zM22 107.23h1.34c.4 0 .82.12.82 1v3.66c0 .93-.42 1-.82 1H22zM71.7 116.79l-1.76-12.36h-3.01L70 123.05h3.4l3.07-18.62h-3.01l-1.76 12.36zM107.29 110v-2.08c0-2.25-1.11-3.44-3.23-3.44h-1.54c-2.12 0-3.24 1.19-3.24 3.44v3.78a4 4 0 0 0 .17 1.26 1.87 1.87 0 0 0 .59.86 7.63 7.63 0 0 0 1.16.72l2.33 1.3c.29.18.5.33.63.43a.78.78 0 0 1 .1.49v2.74c0 .7-.33.8-.69.8h-.44c-.58 0-.82-.23-.82-.8v-1.28h-3v1.21c0 1.67.56 3.67 3.24 3.67H104c2.14 0 3.26-1.18 3.26-3.39v-3.54a3.33 3.33 0 0 0-.21-1.46 2.09 2.09 0 0 0-.58-.68 11.06 11.06 0 0 0-1.13-.71L103 112a4.68 4.68 0 0 1-.62-.43s-.11-.12-.11-.48v-3.06c0-.58.23-.82.77-.82h.39c.56 0 .79.24.79.82V110zM48.66 110v-2.08c0-2.25-1.12-3.44-3.23-3.44h-1.55c-2.11 0-3.23 1.19-3.23 3.44v3.78a3.76 3.76 0 0 0 .17 1.26 1.87 1.87 0 0 0 .59.86 7.63 7.63 0 0 0 1.16.72l2.33 1.3a5.89 5.89 0 0 1 .62.43s.11.13.11.49v2.74c0 .7-.33.8-.69.8h-.44c-.58 0-.82-.23-.82-.8v-1.28h-3v1.21c0 1.67.56 3.67 3.23 3.67h1.49c2.13 0 3.26-1.18 3.26-3.39v-3.54a3.48 3.48 0 0 0-.21-1.46 2.09 2.09 0 0 0-.58-.68 12.35 12.35 0 0 0-1.13-.71L44.41 112a4.68 4.68 0 0 1-.62-.43s-.11-.12-.11-.48v-3.06c0-.58.22-.82.77-.82h.39c.56 0 .79.24.79.82V110zM8 113v-5.12c0-2.25-1.12-3.44-3.23-3.44H0v15.18c0 2.25 1.12 3.44 3.24 3.44h1.54c2.11 0 3.23-1.19 3.23-3.44v-3.82H5v3.64c0 .58-.23.82-.79.82H3.8c-.55 0-.77-.24-.77-.82v-12.2h1.16c.56 0 .79.24.79.82V113zM89.75 110v-2.08c0-2.25-1.12-3.44-3.24-3.44H85c-2.12 0-3.24 1.19-3.24 3.44v11.74c0 2.25 1.12 3.44 3.24 3.44h1.54c2.12 0 3.24-1.19 3.24-3.44v-1.44h-3v1.26c0 .58-.23.82-.8.82h-.39c-.54 0-.77-.24-.77-.82v-11.43c0-.58.23-.82.77-.82h.39c.57 0 .8.24.8.82V110zM97.85 107.23v-2.8h-6.67v2.8h.01v5.76h-.01v2.8h.01v4.46h-.01v2.8h6.67v-2.8h-3.63v-4.46h3.22v-2.8h-3.22v-5.76h3.63zM56.77 107.23v-2.8h-6.68v2.8h.01v13.02h-.01v2.8h6.68v-2.8h-3.64v-4.46h3.24v-2.8h-3.24v-5.76h3.64zM35.11 107.23v-2.8h-6.68v2.8h.02v13.02h-.02v2.8h6.68v-2.8h-3.63v-4.46h3.23v-2.8h-3.23v-5.76h3.63zM77.27 104.43h3.03v18.62h-3.03zM14.4 104.43h-5v18.62h3v-7.26h2v7.26h3v-15.18c.11-1.57-.4-3.44-3-3.44zM12.47 113v-5.76h1.19c.41 0 .82.12.82 1V113zM25.39 145.73l-.21.2a4 4 0 0 1-.49-.23 4.32 4.32 0 0 1-1-.74l-.12-.16-.57.63-1 1.2.1.11a4.44 4.44 0 0 0 .78.61l.31.19.28.14a2.3 2.3 0 0 0 .57.2h.16v-.16a1.55 1.55 0 0 1 .27-.33l.54-.53.78.49.33.2.37.2.31.17.09-.05a2.54 2.54 0 0 0 .59-.58l.23-.27.11-.15.1-.13.45-.67-2.12-1.32zM35.12 130.99l-1.95-1.73-1.87 1.79 1.91 1.64 1.91-1.7z"/><path class="cls-1" d="M26.06 141.47a2.76 2.76 0 0 0 .59 1 1.91 1.91 0 0 0 1.29.48h10.47l.05-.12a14.93 14.93 0 0 0 .35-2l.21-1.56a9.43 9.43 0 0 0-1-4.15c-.72-1.46-1.4-2.16-2.1-2.16a4.25 4.25 0 0 0-3 1.81 4.65 4.65 0 0 0-1.4 2.65 1.63 1.63 0 0 0 .82 1.32 3 3 0 0 0 1.74.55 3.2 3.2 0 0 0 1.7-.42l.92-1a2.22 2.22 0 0 1 .51 1.3l.1.49v.34h-8.73l-.24-.07a1.54 1.54 0 0 1-.42-.26 1.06 1.06 0 0 1-.38-.77v-.14l.16-1.22a8.1 8.1 0 0 0 .12-1.37v-.2l-.1-.25-.16.07c-.11.05-.3.2-.9 1l-.71.93-.06.34v.7l-.21 1.24H20.5l-.19-.19s-.06 0-.1-.18l-.1-.38V136l-.54.57-.23.28-.26.34-.9 1.27.06.1a2.19 2.19 0 0 1 .28 1v.46h-2.14V140a6.66 6.66 0 0 1 .2-1.24 1.47 1.47 0 0 0 .13-.37l.08-.37.45-1.7-.89.89a6.48 6.48 0 0 0-.51.59 10 10 0 0 0-.66.81 1.18 1.18 0 0 0-.21.53 1.37 1.37 0 0 0-.07.45v.45h-3.36a2.29 2.29 0 0 1-.87-1L9.6 136.9l-.46.7-.22.4-.41.72-.21.34-.12.23-.18.42v.08a11.78 11.78 0 0 1 1.1 2.46 7.62 7.62 0 0 1 .26 1 2.67 2.67 0 0 1 .06.49c-.15.22-.62.58-2 1l-.34.14-.39.09L6 145l-.49.1h-.44a4.18 4.18 0 0 1-2.62-.73 2.1 2.1 0 0 1-.85-1.79l.08-.64.26-.87.76-2.07-.2-.3h-.09c-.3 0-.74.25-1.51 2.21a11.63 11.63 0 0 0-.9 4 2.6 2.6 0 0 0 1.44 2.49 7.17 7.17 0 0 0 3.17.54A7.74 7.74 0 0 0 7 147.3a9 9 0 0 0 2.36-1.23 6.29 6.29 0 0 0 1.25-2.17 3.38 3.38 0 0 0 .28-1h3.62l.21-.21.2-.24.11-.11.09.17.25.39h3.73l.09-.46.09-.19.21.29.28.34h5.45zm9.22-4.79h-.86l-.27-.12-.23-.16-.48-.34.44-.46a.94.94 0 0 1 .55-.26 1.44 1.44 0 0 1 .65.31 1.92 1.92 0 0 1 .42.36l.43.57-.45.09z"/><path class="cls-1" d="M60.31 136.8c-.2.21-.4.45-.62.73-.68.88-.68 1-.68 1.06l.06.41.11.55.06.31v.15h-1.81a.31.31 0 0 1 0-.1 4.25 4.25 0 0 1 .11-.8l.16-.69.59-2.16-1.51 1.47a6 6 0 0 0-.77.91 1.73 1.73 0 0 0-.2.41 2.64 2.64 0 0 0-.08.75v.2l-.53.09H53.32l-.61-.08a1.61 1.61 0 0 1-.48-.21l.12-.39a1.78 1.78 0 0 0 .22-.46l.16-.49a7.2 7.2 0 0 0 .38-1.78v-.42l-.29.29c-.47.47-.87.89-1.18 1.25-.6.6-.72.82-.77 1a3.84 3.84 0 0 1 0 .71c-.14.32-.31.49-.5.49h-3.7a1.7 1.7 0 0 1-.83-.28 4.19 4.19 0 0 1-.87-.91l-.6-.85-.87-1.37-1.5 2.63.08.09c.29.34.6.74.94 1.19.57.83.64 1.09.64 1.17 0 .24-.17.7-.94 1.53a7.9 7.9 0 0 1-.76.72l-.45.4-.39.32a12.15 12.15 0 0 1-1.74 1.1 3.06 3.06 0 0 1-1.28.29l-.5-.03-.57-.19-1.39-.51h-.06a.35.35 0 0 0-.28.33c0 .26.27.62 2.22 1.48a9.05 9.05 0 0 0 2.95 1c1 0 2.11-.75 3.18-2.24a8.77 8.77 0 0 0 1.54-3.25 1.78 1.78 0 0 0 .32.23.56.56 0 0 0 .26.11.42.42 0 0 0 .2 0H49.62l.33-.09.28-.15a2.45 2.45 0 0 0 .55-.49l.25.46a1.31 1.31 0 0 0 .7.3 9.44 9.44 0 0 0 1.43.08H54.08l.64-.05 1.06-.14.34-.43.06-.06a.57.57 0 0 1 .08.13l.1.26.15.21h3.63l.18-.55.25-.53.3-.62.13-.4a7 7 0 0 0 .13-1.47V136zM81.79 145.73l-.21.2a4.09 4.09 0 0 1-.5-.23 3.91 3.91 0 0 1-1-.74l-.13-.16-.57.63-1 1.2.1.11a4.07 4.07 0 0 0 .78.61l.3.19.28.14a2.17 2.17 0 0 0 .57.2h.16v-.16a3.94 3.94 0 0 1 .27-.33l.55-.53.78.49.33.2.36.2.32.17.08-.05a2.36 2.36 0 0 0 .59-.58l.23-.27.11-.15.11-.13.45-.67-2.12-1.32z"/><path class="cls-1" d="M107.12 137.52a2.7 2.7 0 0 0-1.26-1 5.39 5.39 0 0 0-1.87-.31l-1.93.06-2.66.05h-8.52a4.36 4.36 0 0 1-1.66-.16 5.83 5.83 0 0 1 1.46-1 9 9 0 0 1 1.62-.74l1.41-.56.39-.16 1-.35a2 2 0 0 1 .52-.15l.5-.09.6-.88 1.08-1.63-1.22.33-.77.21-1 .34-.83.31a23.07 23.07 0 0 0-3 1.54 17.34 17.34 0 0 0-1.43 1c-.55.45-1 .86-1.35 1.2a3.93 3.93 0 0 0-.86 1.19 2.75 2.75 0 0 0-.32 1.16c0 .5.24.65.41.68s.57.23.82.31l.44.09h.63l1.32.05h2.1l4.15-.11 3.81-.16 1.89-.15h.44l.41.06a1.39 1.39 0 0 1 .56.23 1 1 0 0 1 .44.91v.29L87.87 140H85l-.25-.07a1.36 1.36 0 0 1-.41-.26 1 1 0 0 1-.38-.76v-.15l.16-1.22a8.33 8.33 0 0 0 .13-1.37v-.2l-.11-.25-.16.07c-.1.05-.29.2-.9 1l-.7.93-.06.34v.7l-.24 1.24h-5.31a1.7 1.7 0 0 1-.82-.28 4.19 4.19 0 0 1-.87-.91l-.6-.85-.87-1.37-1.55 2.61.08.09c.29.34.61.74.93 1.19.58.83.64 1.09.64 1.17 0 .24-.16.7-.93 1.53a7.9 7.9 0 0 1-.76.72l-.45.4-.39.32a12.76 12.76 0 0 1-1.74 1.1 3.1 3.1 0 0 1-1.28.29l-.46-.01-.56-.19-1.39-.51h-.06a.34.34 0 0 0-.28.33c0 .26.27.62 2.21 1.48a9.08 9.08 0 0 0 3 1c1 0 2.11-.75 3.18-2.24a8.77 8.77 0 0 0 1.54-3.25 1.49 1.49 0 0 0 .32.23.52.52 0 0 0 .26.11.4.4 0 0 0 .2 0h5.57l.8-1.44a2.63 2.63 0 0 0 .6 1 1.89 1.89 0 0 0 1.29.48H106l.27-1 .54-1.58a7.4 7.4 0 0 0 .46-2.1 1.45 1.45 0 0 0-.15-.8z"/></g></g></svg>